<?xml version="1.0" encoding="UTF-8" standalone="no"?>
<!-- Created with Inkscape (http://www.inkscape.org/) -->

<svg
   width="128"
   height="128"
   viewBox="0 0 33.866666 33.866666"
   version="1.1"
   id="svg5"
   inkscape:version="1.2.1 (9c6d41e4, 2022-07-14)"
   sodipodi:docname="icon.svg"
   inkscape:export-filename="icon16.png"
   inkscape:export-xdpi="12"
   inkscape:export-ydpi="12"
   xmlns:inkscape="http://www.inkscape.org/namespaces/inkscape"
   xmlns:sodipodi="http://sodipodi.sourceforge.net/DTD/sodipodi-0.dtd"
   xmlns="http://www.w3.org/2000/svg"
   xmlns:svg="http://www.w3.org/2000/svg">
  <sodipodi:namedview
     id="namedview7"
     pagecolor="#ffffff"
     bordercolor="#000000"
     borderopacity="0.25"
     inkscape:showpageshadow="2"
     inkscape:pageopacity="0.0"
     inkscape:pagecheckerboard="0"
     inkscape:deskcolor="#d1d1d1"
     inkscape:document-units="mm"
     showgrid="false"
     inkscape:zoom="3.4814034"
     inkscape:cx="7.6118728"
     inkscape:cy="60.464122"
     inkscape:window-width="1626"
     inkscape:window-height="987"
     inkscape:window-x="54"
     inkscape:window-y="25"
     inkscape:window-maximized="0"
     inkscape:current-layer="layer1" />
  <defs
     id="defs2" />
  <g
     inkscape:label="Layer 1"
     inkscape:groupmode="layer"
     id="layer1">
    <rect
       style="fill:#f9f9f9;stroke:none;stroke-width:0.350266"
       id="rect180"
       width="41.941792"
       height="39.585815"
       x="-3.9091091"
       y="-2.3891282"
       sodipodi:insensitive="true" />
    <path
       style="fill:none;stroke:#4d4d4d;stroke-width:2.11666667;stroke-dasharray:none;stroke-linejoin:miter;stroke-linecap:round"
       d="m 8.587892,5.0159369 c -1.874643,0 -3.7492863,0 -5.6239293,0 -0.1621631,0 -0.743736,-0.1085077 -0.8359895,0.075999 -0.061977,0.1239533 0.2032654,0.2032656 0.2279972,0.2279973 0.067001,0.067001 0.2208616,0.6518815 0.2279971,0.6839913 0.021982,0.098919 -0.00632,0.2028616 0,0.3039962 0.011491,0.1838571 0.1171293,1.4278977 0.151998,1.671979 0.040055,0.2803851 0.1274619,0.5538227 0.1519981,0.8359894 0.026334,0.3028535 -0.013205,0.6082795 0,0.9119886 0.039836,0.9162173 0.075999,1.8160893 0.075999,2.7359653 0,0.494191 0.037959,1.02651 0,1.519981 -0.096537,1.254985 -0.036344,-0.165246 -0.1519981,0.759991 -0.035249,0.281992 -0.00811,0.41244 -0.075999,0.683991 -0.044152,0.176608 0,0.422553 0,0.607992 0,0.58266 0,1.165319 0,1.747978 0,0.138396 -0.08812,0.74787 0,0.83599 0.035184,0.03518 0.3972115,-0.144651 0.4559943,-0.151998 0.2765112,-0.03456 0.5573265,0 0.8359896,0 0.8613225,0 1.7226449,0 2.5839674,0"
       id="path195" />
    <path
       style="fill:none;stroke:#4d4d4d;stroke-width:2.11667;stroke-linecap:round;stroke-linejoin:miter;stroke-dasharray:none"
       d="m 25.068379,4.6359418 c 1.545925,0.021135 3.099727,-0.063657 4.635943,0.075999 0.108675,0.00988 0.720717,0.018362 0.835988,0.075999 0.228074,0.1140357 0.01807,0.5395007 0,0.6839913 -0.236376,1.8910186 -0.227997,3.7979924 -0.227997,5.6999279 0,1.670374 -0.02821,3.348633 0.076,5.015937 0.01635,0.261521 0.185992,2.667978 0.076,2.887964 -0.01479,0.02958 -0.550497,0 -0.759989,0 -0.781764,0 -1.747459,-0.09506 -2.507969,0 -0.275964,0.03449 -0.486002,0.076 -0.759991,0.076 -0.139049,0 -0.683991,0.06121 -0.683991,-0.076"
       id="path197" />
    <path
       style="fill:none;stroke:#4d4d4d;stroke-width:2.11667;stroke-linecap:round;stroke-linejoin:miter;stroke-dasharray:none"
       d="m 12.53419,9.1198852 c 0.227997,0 0.455994,0 0.683991,0"
       id="path203" />
    <path
       style="fill:none;stroke:#4d4d4d;stroke-width:2.11667;stroke-linecap:round;stroke-linejoin:miter;stroke-dasharray:none"
       d="m 12.762187,11.323857 c 0,0.253331 0,0.506661 0,0.759991 0,0.459177 -0.06525,0.987202 0,1.443982 0.01133,0.0793 0.06715,0.148377 0.076,0.227997 0.02238,0.201425 -0.03975,0.409264 0,0.607992 0.02796,0.139791 0.22205,0.683992 0.076,0.683992"
       id="path205" />
    <path
       style="fill:none;stroke:#4d4d4d;stroke-width:2.11667;stroke-linecap:round;stroke-linejoin:miter;stroke-dasharray:none"
       d="m 15.118157,10.183872 c 0.633325,0 1.266651,0 1.899976,0"
       id="path207" />
    <path
       style="fill:none;stroke:#4d4d4d;stroke-width:2.11667;stroke-linecap:round;stroke-linejoin:miter;stroke-dasharray:none"
       d="m 16.410141,7.9798996 c 0,0.7853236 0,1.5706469 0,2.3559704 0,1.369987 0.0024,2.750344 0.227997,4.103948 0.01406,0.08438 0.193427,1.367983 0.227997,1.367983 0.05067,0 0,-0.101332 0,-0.151998"
       id="path211" />
    <path
       style="fill:none;stroke:#4d4d4d;stroke-width:2.11667;stroke-linecap:round;stroke-linejoin:miter;stroke-dasharray:none"
       d="m 19.97927,6.915913 c 0,0.5319934 0,1.0639866 0,1.5959798 0,1.5453142 0,3.0906282 0,4.6359422 0,0.321952 -0.06391,0.744429 0,1.063986 0.07378,0.368902 0.22116,0.767226 0.303996,1.139986 0.01099,0.04946 0,0.101332 0,0.151998 0.05067,0.151998 0.107982,0.301939 0.151998,0.455994 0.007,0.02436 0.02533,0.076 0,0.076 -0.07165,0 -0.101332,-0.101332 -0.151998,-0.151998"
       id="path213" />
    <path
       style="fill:none;stroke:#4d4d4d;stroke-width:2.11667;stroke-linecap:round;stroke-linejoin:miter;stroke-dasharray:none"
       d="m 23.399227,13.223834 c 0.177331,-0.02533 0.353597,-0.05978 0.531993,-0.076 0.777566,-0.07069 1.212038,-0.04602 1.899976,-0.303997 0.110105,-0.04129 0.85115,-0.197676 0.683991,-0.531993 -0.08603,-0.172054 -0.384632,-0.03916 -0.531993,-0.076 -0.05495,-0.01374 -0.09704,-0.06226 -0.151998,-0.076 -0.451262,-0.112815 -2.323707,0.01147 -2.583968,0.531993 -0.08248,0.164957 0.151999,0.347567 0.151999,0.531994 0,0.208901 -0.117655,0.401933 -0.151999,0.607992 -0.07985,0.479122 0.388037,0.968016 0.759991,1.215985 0.124321,0.08288 0.886892,0.379995 0.683991,0.379995"
       id="path215" />
    <path
       style="fill:none;stroke:#4d4d4d;stroke-width:2.11666667;stroke-dasharray:none;stroke-linejoin:miter;stroke-linecap:round"
       d="m 5.9279255,22.26772 c -0.6377363,0.443574 -0.7026079,1.112082 -0.9119886,1.823977 -0.1118351,0.38024 -0.301584,0.747929 -0.3799951,1.139986 -0.00994,0.04968 0.016023,0.103932 0,0.151998 -0.01133,0.03399 -0.070109,0.04066 -0.075999,0.076 -0.020823,0.124941 0.017912,0.254603 0,0.379995 -0.00801,0.05608 -0.06489,0.09645 -0.075999,0.151998 -0.060818,0.304089 -0.051445,0.831319 0,1.139985 0.031219,0.187317 0.1541669,0.365876 0.227997,0.531995 0.091823,0.206602 0.2846906,0.753147 0.3799951,0.911987 0.055298,0.09216 0.1683787,0.13857 0.2279973,0.227997 0.044437,0.06666 0.029436,0.162808 0.075999,0.227999 0.248956,0.348538 0.6707455,0.704908 1.0639867,0.835988 0.068399,0.02281 0.159598,-0.02281 0.2279973,0 0.1439912,0.048 0.1195427,0.076 0.3039962,0.076"
       id="path217" />
    <path
       style="fill:none;stroke:#4d4d4d;stroke-width:2.11666667;stroke-dasharray:none;stroke-linejoin:miter;stroke-linecap:round"
       d="m 27.359655,21.887725 c 1.433689,1.186969 2.321319,3.025389 2.583968,4.863938 0.07927,0.554879 0,1.18423 0,1.747978 0,0.48192 0.04547,1.269251 -0.455993,1.519981"
       id="path219" />
    <path
       style="fill:none;stroke:#4d4d4d;stroke-width:2.11666667;stroke-dasharray:none;stroke-linejoin:miter;stroke-linecap:round"
       d="m 8.815889,22.039723 c 0,0.177331 0,0.354662 0,0.531993 0,0.987988 0,1.975975 0,2.963963 0,0.448081 -0.098246,1.170246 0,1.595979 0.054041,0.234177 0.1480106,0.457364 0.2279973,0.683993 0.061901,0.175387 0.2335329,0.952063 0.5319932,1.063985 0.5532215,0.207459 1.1025385,0.156818 1.6719795,0.227999 0.103644,0.01297 0.199906,0.06732 0.303996,0.076 0.172018,0.01434 1.537579,0.0584 1.671979,-0.076"
       id="path225" />
    <path
       style="fill:none;stroke:#4d4d4d;stroke-width:2.11666667;stroke-dasharray:none;stroke-linejoin:miter;stroke-linecap:round"
       d="m 14.667816,23.255707 c 0.329329,0 0.658658,0 0.987987,0"
       id="path227" />
    <path
       style="fill:none;stroke:#4d4d4d;stroke-width:2.11666667;stroke-dasharray:none;stroke-linejoin:miter;stroke-linecap:round"
       d="m 15.275808,25.915674 c 0,0.835989 0,1.67198 0,2.507968"
       id="path229" />
    <path
       style="fill:none;stroke:#4d4d4d;stroke-width:2.11666667;stroke-dasharray:none;stroke-linejoin:miter;stroke-linecap:round"
       d="m 18.31577,25.307682 c 0,0.278663 0,0.557326 0,0.835989 0,0.455994 0,0.911988 0,1.367984 0,0.02532 0,-0.05067 0,-0.076 0,-0.126666 0,-0.25333 0,-0.379997 0,-0.171344 0.01603,-0.382074 0.076,-0.531992 0.277388,-0.693472 1.253921,-1.633918 1.747978,-2.127974 0.296604,-0.296604 0.04081,0.01759 0.227997,-0.076 0.03204,-0.01602 0.04017,-0.076 0.076,-0.076 0.05503,0 0.148768,0.28892 0.151998,0.303996 0.06458,0.301349 0.111267,0.606503 0.151998,0.911989 0.03365,0.25236 0.04235,0.50763 0.076,0.75999 0.05206,0.390481 0.151998,0.752606 0.151998,1.139985"
       id="path231" />
    <path
       style="fill:none;stroke:#4d4d4d;stroke-width:2.11666667;stroke-dasharray:none;stroke-linejoin:miter;stroke-linecap:round"
       d="m 23.559704,21.583729 c 0.04954,1.416343 -0.06584,2.84036 0,4.255946 0.03304,0.710363 0.111428,1.417999 0.151998,2.127974 0.01012,0.17704 -0.01958,0.355745 0,0.531992 0.0063,0.0563 0.06974,0.0957 0.076,0.151998 0.08881,0.79933 -0.10633,0.258672 0.076,0.987988 0.08733,0.349314 0.076,0.01725 0.076,0.227997"
       id="path233" />
    <path
       style="fill:none;stroke:#4d4d4d;stroke-width:2.11666667;stroke-dasharray:none;stroke-linejoin:miter;stroke-linecap:round"
       d="m 26.21967,24.62369 c -0.482266,0.09304 -0.908867,0.376094 -1.215984,0.759991 -0.01582,0.01978 0.01791,0.05809 0,0.076 -0.04005,0.04006 -0.111943,0.03594 -0.151998,0.076 -0.157825,0.157825 -0.262763,0.38707 -0.455995,0.531993 -0.07892,0.05919 -0.379995,0.233952 -0.379995,0.303996 0,0.07835 0.485504,0.136502 0.531993,0.151999 0.1717,0.05723 0.315957,0.210637 0.455995,0.303995 0.374149,0.249434 0.841835,0.358561 1.215984,0.607994 0.194333,0.129553 0.347634,0.312603 0.531993,0.455994 0.195342,0.151931 0.432726,0.280725 0.607992,0.455993"
       id="path235" />
    <path
       style="fill:none;stroke:#4d4d4d;stroke-width:2.11667;stroke-linecap:round;stroke-linejoin:miter;stroke-dasharray:none"
       d="m 5.618276,8.1318977 c 1.0918529,0.00704 2.1852779,-0.044299 3.2679589,0.075999 0.2321394,0.025794 0.3175336,0.00451 0.5319933,0.075999 0.072099,0.024032 0.1542674,-0.018434 0.2279972,0 0.1427454,0.035686 0.6805866,0.1485932 0.7599906,0.227997"
       id="path345" />
    <path
       style="fill:none;stroke:#4d4d4d;stroke-width:2.11667;stroke-linecap:round;stroke-linejoin:miter;stroke-dasharray:none"
       d="m 7.6702502,8.1318977 c 0,1.7733111 0,3.5466223 0,5.3199333 0,0.507919 -0.06519,1.150462 0,1.671979 0.020368,0.162935 0.2065827,1.367982 0.3799954,1.367982"
       id="path347" />
  </g>
</svg>
